{
  "accessors": [
    {
      "bufferView": 2,
      "componentType": 5126,
      "count": 9730,
      "max": [
        0.8806560039520264,
        -0.3361470103263855,
        0.7038530111312866
      ],
      "min": [
        -0.8806560039520264,
        -0.9654189944267273,
        0.07457999885082245
      ],
      "type": "VEC3"
    },
    {
      "bufferView": 2,
      "byteOffset": 116760,
      "componentType": 5126,
      "count": 9730,
      "max": [
        1.0,
        1.0,
        1.0
      ],
      "min": [
        -1.0,
        -1.0,
        -1.0
      ],
      "type": "VEC3"
    },
    {
      "bufferView": 1,
      "componentType": 5126,
      "count": 9730,
      "max": [
        1.0,
        1.0
      ],
      "min": [
        0.0,
        0.0
      ],
      "type": "VEC2"
    },
    {
      "bufferView": 0,
      "componentType": 5125,
      "count": 57024,
      "type": "SCALAR"
    },
    {
      "bufferView": 2,
      "byteOffset": 233520,
      "componentType": 5126,
      "count": 2102,
      "max": [
        0.3523940145969391,
        -0.2704710066318512,
        1.391173005104065
      ],
      "min": [
        -0.10696300119161606,
        -0.6056540012359619,
        1.0319969654083252
      ],
      "type": "VEC3"
    },
    {
      "bufferView": 2,
      "byteOffset": 258744,
      "componentType": 5126,
      "count": 2102,
      "max": [
        0.9998343586921692,
        0.9996280074119568,
        0.9998249411582947
      ],
      "min": [
        -0.9994547963142395,
        -0.9992237091064453,
        -0.9995062947273254
      ],
      "type": "VEC3"
    },
    {
      "bufferView": 1,
      "byteOffset": 77840,
      "componentType": 5126,
      "count": 2102,
      "max": [
        0.9444100260734558,
        0.7584829926490784
      ],
      "min": [
        0.8940389752388,
        0.687798023223877
      ],
      "type": "VEC2"
    },
    {
      "bufferView": 0,
      "byteOffset": 228096,
      "componentType": 5125,
      "count": 12204,
      "type": "SCALAR"
    },
    {
      "bufferView": 2,
      "byteOffset": 283968,
      "componentType": 5126,
      "count": 65532,
      "max": [
        1.9506429433822632,
        2.0105700492858887,
        1.9160070419311523
      ],
      "min": [
        -1.9505469799041748,
        -1.498128056526184,
        -2.3989028930664063
      ],
      "type": "VEC3"
    },
    {
      "bufferView": 2,
      "byteOffset": 1070352,
      "componentType": 5126,
      "count": 65532,
      "max": [
        0.9999760389328003,
        0.9999819993972778,
        0.9999728202819824
      ],
      "min": [
        -0.999976396560669,
        -0.9999531507492065,
        -0.9999765157699585
      ],
      "type": "VEC3"
    },
    {
      "bufferView": 1,
      "byteOffset": 94656,
      "componentType": 5126,
      "count": 65532,
      "max": [
        0.9997010231018066,
        0.9878519773483276
      ],
      "min": [
        0.0008140000281855464,
        0.000299000006634742
      ],
      "type": "VEC2"
    },
    {
      "bufferView": 0,
      "byteOffset": 276912,
      "componentType": 5125,
      "count": 322803,
      "type": "SCALAR"
    },
    {
      "bufferView": 2,
      "byteOffset": 1856736,
      "componentType": 5126,
      "count": 65532,
      "max": [
        1.9493340253829956,
        2.0105700492858887,
        1.9160219430923462
      ],
      "min": [
        -1.943560004234314,
        -1.4966059923171997,
        -2.3991169929504395
      ],
      "type": "VEC3"
    },
    {
      "bufferView": 2,
      "byteOffset": 2643120,
      "componentType": 5126,
      "count": 65532,
      "max": [
        0.9999971389770508,
        0.9999819993972778,
        0.9999728202819824
      ],
      "min": [
        -0.9999483823776245,
        -0.9999653100967407,
        -0.9999953508377075
      ],
      "type": "VEC3"
    },
    {
      "bufferView": 1,
      "byteOffset": 618912,
      "componentType": 5126,
      "count": 65532,
      "max": [
        0.9997010231018066,
        0.9878919720649719
      ],
      "min": [
        0.0003600000054575503,
        0.000299000006634742
      ],
      "type": "VEC2"
    },
    {
      "bufferView": 0,
      "byteOffset": 1568124,
      "componentType": 5125,
      "count": 325068,
      "type": "SCALAR"
    },
    {
      "bufferView": 2,
      "byteOffset": 3429504,
      "componentType": 5126,
      "count": 26407,
      "max": [
        1.9499939680099487,
        2.0087170600891113,
        1.9152170419692993
      ],
      "min": [
        -1.9505469799041748,
        -1.4980189800262451,
        -2.3987910747528076
      ],
      "type": "VEC3"
    },
    {
      "bufferView": 2,
      "byteOffset": 3746388,
      "componentType": 5126,
      "count": 26407,
      "max": [
        0.9999760389328003,
        0.9999724626541138,
        0.9997130036354065
      ],
      "min": [
        -0.9999483823776245,
        -0.9999414682388306,
        -0.9999547004699707
      ],
      "type": "VEC3"
    },
    {
      "bufferView": 1,
      "byteOffset": 1143168,
      "componentType": 5126,
      "count": 26407,
      "max": [
        0.9974409937858582,
        0.9878519773483276
      ],
      "min": [
        0.00037299998803064227,
        0.0006469999789260328
      ],
      "type": "VEC2"
    },
    {
      "bufferView": 0,
      "byteOffset": 2868396,
      "componentType": 5125,
      "count": 66069,
      "type": "SCALAR"
    }
  ],
  "asset": {
    "extras": {
      "author": "moxstudios (https://sketchfab.com/moxstudios)",
      "license": "CC-BY-4.0 (http://creativecommons.org/licenses/by/4.0/)",
      "source": "https://sketchfab.com/3d-models/stitch-free-777e1bbc9df74359ad460c318d453072",
      "title": "Stitch Free"
    },
    "generator": "Sketchfab-12.67.0",
    "version": "2.0"
  },
  "bufferViews": [
    {
      "buffer": 0,
      "byteLength": 3132672,
      "name": "floatBufferViews",
      "target": 34963
    },
    {
      "buffer": 0,
      "byteLength": 1354424,
      "byteOffset": 3132672,
      "byteStride": 8,
      "name": "floatBufferViews",
      "target": 34962
    },
    {
      "buffer": 0,
      "byteLength": 4063272,
      "byteOffset": 4487096,
      "byteStride": 12,
      "name": "floatBufferViews",
      "target": 34962
    }
  ],
  "buffers": [
    {
      "byteLength": 8550368,
      "uri": "scene.bin"
    }
  ],
  "extensionsUsed": [
    "KHR_materials_clearcoat"
  ],
  "images": [
    {
      "uri": "textures/stitch_shading_baseColor.png"
    }
  ],
  "materials": [
    {
      "doubleSided": true,
      "extensions": {
        "KHR_materials_clearcoat": {
          "clearcoatFactor": 1.0,
          "clearcoatRoughnessFactor": 0.04
        }
      },
      "name": "Material.001",
      "pbrMetallicRoughness": {
        "baseColorFactor": [
          0.009427772959295309,
          0.03081297520389197,
          0.035074965798719875,
          1.0
        ],
        "metallicFactor": 0.0,
        "roughnessFactor": 0.5131063855187727
      }
    },
    {
      "doubleSided": true,
      "extensions": {
        "KHR_materials_clearcoat": {
          "clearcoatFactor": 0.2156184934220224,
          "clearcoatRoughnessFactor": 0.5049266695226513
        }
      },
      "name": "stitch_shading",
      "pbrMetallicRoughness": {
        "baseColorTexture": {
          "index": 0
        },
        "metallicFactor": 0.0,
        "roughnessFactor": 0.5642557204144556
      }
    }
  ],
  "meshes": [
    {
      "name": "Object_0",
      "primitives": [
        {
          "attributes": {
            "NORMAL": 1,
            "POSITION": 0,
            "TEXCOORD_0": 2
          },
          "indices": 3,
          "material": 0,
          "mode": 4
        }
      ]
    },
    {
      "name": "Object_1",
      "primitives": [
        {
          "attributes": {
            "NORMAL": 5,
            "POSITION": 4,
            "TEXCOORD_0": 6
          },
          "indices": 7,
          "material": 1,
          "mode": 4
        }
      ]
    },
    {
      "name": "Object_2",
      "primitives": [
        {
          "attributes": {
            "NORMAL": 9,
            "POSITION": 8,
            "TEXCOORD_0": 10
          },
          "indices": 11,
          "material": 1,
          "mode": 4
        }
      ]
    },
    {
      "name": "Object_3",
      "primitives": [
        {
          "attributes": {
            "NORMAL": 13,
            "POSITION": 12,
            "TEXCOORD_0": 14
          },
          "indices": 15,
          "material": 1,
          "mode": 4
        }
      ]
    },
    {
      "name": "Object_4",
      "primitives": [
        {
          "attributes": {
            "NORMAL": 17,
            "POSITION": 16,
            "TEXCOORD_0": 18
          },
          "indices": 19,
          "material": 1,
          "mode": 4
        }
      ]
    }
  ],
  "nodes": [
    {
      "children": [
        1
      ],
      "matrix": [
        1.0,
        0.0,
        0.0,
        0.0,
        0.0,
        2.220446049250313e-16,
        -1.0,
        0.0,
        0.0,
        1.0,
        2.220446049250313e-16,
        0.0,
        0.0,
        0.0,
        0.0,
        1.0
      ],
      "name": "Sketchfab_model"
    },
    {
      "children": [
        2,
        3,
        4,
        5,
        6
      ],
      "name": "stitch_free_Reduced.obj.cleaner.materialmerger.gles"
    },
    {
      "mesh": 0,
      "name": "Object_2"
    },
    {
      "mesh": 1,
      "name": "Object_3"
    },
    {
      "mesh": 2,
      "name": "Object_4"
    },
    {
      "mesh": 3,
      "name": "Object_5"
    },
    {
      "mesh": 4,
      "name": "Object_6"
    }
  ],
  "samplers": [
    {
      "magFilter": 9729,
      "minFilter": 9987,
      "wrapS": 10497,
      "wrapT": 10497
    }
  ],
  "scene": 0,
  "scenes": [
    {
      "name": "Sketchfab_Scene",
      "nodes": [
        0
      ]
    }
  ],
  "textures": [
    {
      "sampler": 0,
      "source": 0
    }
  ]
}
